<?xml version="1.0" encoding="UTF-8"?> <svg xmlns="http://www.w3.org/2000/svg" width="968" height="370" viewBox="0 0 968 370" fill="none"><path d="M200.959 0C203.175 1.50997 209.1 12.5793 211.632 15.5664C223.759 29.8764 234.559 35.7125 243.532 53.0302C282.386 33.5161 325.256 42.1871 346.942 82.1394C357.923 102.37 358.473 125.104 351.581 146.908C366.925 149.481 371.072 154.783 372.476 169.877C381.671 173.11 383.977 177.199 391.431 183.21C394.73 185.87 399.212 188.679 402.859 190.979C399.38 192.945 392.573 196.685 389.791 199.081C381.099 206.57 383.403 209.448 371.683 212.972C372.231 227.242 364.939 234.349 350.842 234.897C356.579 249.842 357.381 263.217 352.494 278.65C347.099 295.601 335.109 309.668 319.226 317.68C301.12 326.93 279.475 328.213 260.169 322.041C255.662 335.435 247.445 337.871 236.367 329.652C229.926 337.325 222.354 343.873 215.529 351.184C210.372 356.706 206.123 362.773 201.921 369.02L201.535 369.119C200.318 368.405 192.655 357.773 190.425 355.516C181.918 346.905 173.642 339.392 165.372 330.493C153.353 337.481 145.851 334.9 142.343 321.189C125.472 326.698 108.66 327.889 91.6171 321.877C74.9839 316.134 61.3144 304.017 53.6171 288.194C44.993 270.046 46.1687 253.447 52.5992 235.104C37.4845 234.103 31.3544 229.7 31.2183 213.9C21.1433 210.426 20.7978 206.001 13.3118 199.664C10.0683 196.919 3.86507 193.558 0 191.362C3.67821 188.587 7.77428 186.092 11.5962 183.16C18.2755 178.038 21.9594 172.316 30.2201 169.915C32.701 154.574 34.5866 148.817 51.1869 147.324C33.6541 91.0039 74.1088 31.7657 136.234 44.9357C144.264 46.6382 151.494 50.245 158.811 53.8547C167.479 37.506 183.596 26.5372 193.998 11.3802C196.533 7.68788 198.72 3.86977 200.959 0Z" fill="url(#paint0_linear_146_121)"></path><path d="M200.883 15.0449C217.866 36.6193 228.024 38.6917 239.803 66.2403C248.44 61.7601 258.569 56.5766 267.965 54.2319C283.791 50.4353 300.473 52.9369 314.491 61.207C340.296 76.704 351.439 109.25 343.834 137.892C342.757 141.964 341.303 145.927 339.492 149.731C336.003 156.958 329.552 164.941 332.023 172.519C334.465 180.004 339.27 183.235 345.527 186.863C344.654 190.756 344.593 192.007 345.603 195.847C334.299 202.203 332.237 205.869 331.74 218.831C337.977 228.77 343.05 235.57 345.116 247.44C347.902 263.057 344.201 279.134 334.869 291.962C325.926 304.242 312.529 312.529 297.549 315.047C296.996 316.641 296.619 318.446 295.33 319.397C293.653 318.907 293.204 317.324 292.51 315.784C273.938 316.365 270.72 315.451 253.613 308.372C253.05 316.503 252.944 330.997 241.146 323.203C249.256 309.339 237.991 296.613 259.892 300.179L260.396 299.628C258.528 290.52 246.354 292.512 242.221 298C237.443 304.343 238.14 314.522 233.21 321.333C223.985 334.077 211.952 343.236 201.527 355.29C190.045 343.032 175.506 332.734 167.5 318.151C161.183 306.644 167.522 297.469 150.858 293.066C145.382 294.366 144.059 295.882 140.451 299.924C144.37 299.659 148.911 299.101 152.756 299.936C159.695 301.444 156.629 308.803 157.871 314.369C158.873 318.864 159.476 319.498 161.832 323.496C160.54 324.23 158.729 325.318 157.298 325.643C155.874 325.98 154.375 325.642 153.234 324.727C149.813 322.04 149.834 312.311 149.51 307.93C129.211 317.21 109.6 320.467 88.7811 309.952C65.2207 298.321 52.7738 271.995 58.7357 246.405C59.6804 242.349 61.0025 238.39 62.6862 234.58C69.9957 218.02 78.7541 206.677 56.9853 195.856C57.515 191.751 57.5816 190.416 57.0905 186.432C69.5572 179.096 75.1303 170.109 66.8358 156.671C45.069 121.409 59.8841 70.1758 99.8796 55.8151C124.426 47.0022 141.744 56.2874 163.5 66.5182C172.982 39.3547 186.286 36.9761 200.883 15.0449Z" fill="#331800"></path><path d="M292.51 315.785L297.549 315.049C296.997 316.642 296.619 318.447 295.33 319.398C293.653 318.908 293.204 317.325 292.51 315.785Z" fill="#D19C2D"></path><path d="M201.379 274.21C211.178 245.508 224.061 238.536 248.666 223.23C260.033 216.16 275.524 203.119 283.755 192.576C310.865 157.856 301.309 92.4216 253.491 81.7823C250.403 81.0921 240.362 81.3476 238.565 79.9512L238.946 79.1822C250.209 72.8484 263.657 77.844 273.985 83.837C298.133 99.7142 306.972 126.186 303.329 154.159C299.217 188.138 276.747 212.415 248.875 230.03C228.603 242.842 213.41 251.754 206.479 276.165C210.754 280.35 211.847 282.439 213.751 287.783C211.072 297.832 207.291 300.036 201.514 308.586C192.984 297.732 182.881 289.007 195.685 276.961C188.468 247.786 164.872 238.905 142.114 222.331C118.158 205.767 103.941 184.287 99.5982 155.12C94.4034 120.236 112.56 82.1702 149.892 76.4862C154.423 76.0899 161.625 76.3651 164.944 79.7785C163.872 80.9222 151.835 81.3476 149.027 81.9918C112.955 90.26 99.8151 129.415 105.599 162.198C113.773 208.536 156.766 219.393 186.478 247.471C193.894 254.48 197.095 265.021 201.379 274.21Z" fill="#D19C2D"></path><path d="M197.53 283.701C198.307 284.608 200.345 289.904 201.435 291.914C202.278 289.224 202.757 286.422 205.079 284.85L205.855 285.082C206.811 287.35 206.075 290.103 205.537 292.404C204.479 295.783 203.618 297.944 201.905 301.009C197.141 295.534 195.542 290.772 197.53 283.701Z" fill="#331800"></path><path d="M200.545 96.7886C202.616 98.6291 203.428 106.524 205.032 109.461C214.228 126.297 226.83 146.742 220.548 166.628C217.705 175.631 209.854 180.848 201.688 184.834C195.56 183.898 188.805 179.658 185.244 174.699C175.924 161.717 181.189 141.952 187.331 128.778C192.819 117.005 198.337 110.017 200.545 96.7886Z" fill="#D19C2D"></path><path d="M201.926 139.455C207.923 146.147 205.542 165.98 204.049 173.932C210.805 162.982 211.675 161.581 214.414 149.004C214.199 157.321 214.529 164.714 209.823 171.975C208.11 174.619 203.241 180.356 200.328 181.014L199.201 180.278C189.071 169.394 189.745 161.914 188.573 147.405C192.009 157.5 197.11 166.033 200.779 176.965C200.132 163.1 202.804 153.247 201.926 139.455Z" fill="#331800"></path><path d="M202.489 120.852C203.381 122.48 203.907 129.462 201.806 130.542C200.435 129.78 200.069 128.416 199.372 126.921L199.028 126.711C197.636 126.998 198.15 127.085 196.916 126.696L197.012 125.965C198.814 124.251 200.988 122.701 202.489 120.852Z" fill="#D19C2D"></path><path d="M200.954 39.1133C204.697 42.9661 208.468 46.9139 212.302 50.6897C217.707 56.0131 225.614 61.1177 228.926 68.1427C232.415 75.5441 229.805 82.6921 227.309 89.7846C260.977 77.9434 287.455 99.7384 293.758 133.25C296.5 147.835 291.542 175.305 282.797 187.559C287.305 175.053 289.756 165.54 290.293 151.754C291.389 123.625 274.996 92.8252 244.029 91.6392C233.095 91.2204 225.199 95.6264 217.404 103.065C220.482 96.3297 223.741 89.733 224.693 82.2939C226.247 70.1569 216.644 64.9133 208.99 57.6705C205.872 54.721 203.983 52.58 201.198 49.1873C198.386 52.78 196.262 54.9069 193.057 58.1222C173.742 77.1565 174.938 78.8298 185.796 102.287C181.715 99.0595 179.389 97.1598 174.789 94.8507C166.215 90.4185 155.12 91.0195 146.213 94.2854C113.237 106.379 106.349 151.014 117.485 180.378C120.006 187.023 123.917 192.985 126.211 199.646C122.601 194.853 119.321 188.058 116.654 182.439C101.767 151.08 105.98 106.188 140.67 90.0429C152.722 84.4331 163.985 85.1664 176.311 89.8053C166.37 70.632 177.803 63.686 190.313 50.994C193.939 47.3158 197.584 43.0629 200.954 39.1133Z" fill="#D19C2D"></path><path d="M205.216 191.927C211.247 197.535 209.915 198.933 213.05 204.794C212.992 200.001 209.277 192.554 209.813 190.794C211.109 190.133 211.164 190.443 212.905 190.647C216.202 192.517 219.578 194.943 220.283 198.965C222.052 209.052 212.574 216.591 206.755 223.441C204.499 226.096 202.91 228.291 201.042 231.128C194.226 221.381 170.437 200.5 189.209 190.254L190.626 190.966C191.871 193.208 190.278 197.772 190.061 201.289L190.026 201.912C191.755 196.021 192.778 194.192 198.056 190.894C197.501 200.83 197.911 206.877 202.684 216.032C205.063 207.967 205.015 200.231 205.216 191.927Z" fill="#D19C2D"></path><path d="M228.164 177.526C232.996 176.018 237.469 174.392 242.019 172.131C253.192 166.579 259.622 163.741 271.427 169.994C272.694 170.674 273.95 171.38 275.191 172.109C246.453 181.395 259.919 203.508 216.632 185.7C216.103 185.591 215.957 185.446 215.46 185.182C218.225 177.659 223.799 179.868 227.987 175.784L228.41 175.98L228.164 177.526Z" fill="#D19C2D"></path><path d="M255.161 177.058C246.314 185.782 236.438 185.143 225.042 184.752L224.818 183.488C234.877 181.409 245.159 179.054 255.161 177.058Z" fill="#331800"></path><path d="M216.632 185.701C216.103 185.592 215.957 185.447 215.46 185.183C218.225 177.66 223.799 179.869 227.987 175.785L228.41 175.981L228.164 177.527C223.479 179.322 220.775 180.155 216.809 183.312L224.817 183.488L225.041 184.752C221.844 184.784 219.682 184.621 216.632 185.701Z" fill="#653503"></path><path d="M180.503 275.42C181.024 276.475 180.436 276.853 179.762 278.502C178.184 282.273 177.454 286.345 177.625 290.429C178.085 302.277 193.004 316.334 201.448 324.01C216.927 305.143 230.51 302.987 222.429 275.158C228.057 279.703 229.25 281.928 230.91 288.685C231.34 309.11 214.216 319.111 201.538 334.284C194.673 326.615 186.44 319.718 180.04 311.883C170.674 300.413 167.167 285.509 180.503 275.42Z" fill="#D19C2D"></path><path d="M161.695 111.344C176.51 115.251 178.096 118.849 183.972 132.21C182.555 138.466 180.21 145.077 178.59 151.494C176.174 138.146 174.785 135.372 169.341 122.961C171.182 135.322 169.411 140.398 173.723 153.458C179.099 166.73 177.804 168.819 186.155 181.987C169.778 169.162 158.734 158.031 163.783 136.1C166.144 125.842 166.147 120.955 161.695 111.344Z" fill="#D19C2D"></path><path d="M239.638 112.042L240.403 112.115C240.765 113.82 237.348 122.259 237.84 124.597C242.9 148.633 239.913 164.7 216.901 178.936C222.032 170.886 223.279 166.165 226.49 157.232C231.779 145.427 232.285 139.608 229.04 127.105C227.279 134.301 225.957 143.008 223.919 149.769C222.558 144.417 220.981 139.121 219.191 133.896C222.63 121.5 227.307 116.264 239.638 112.042Z" fill="#D19C2D"></path><path d="M290.459 202.497C297.438 203.847 297.906 207.643 299.928 213.812C302.752 222.426 302.89 231.86 300.932 240.681C297.59 255.734 288.387 268.836 275.36 277.087C264.877 283.724 252.643 286.959 240.384 284.159C237.433 283.358 235.084 281.49 232.661 279.709C243.727 279.54 252.314 281.349 263.104 277.183C285.281 268.618 297.959 245.581 295.964 222.282C295.347 215.079 292.961 209.173 290.459 202.497Z" fill="#D19C2D"></path><path d="M109.312 202.352C109.641 202.419 110.881 202.841 111.244 202.956C111.809 204.684 108.014 215.296 107.55 218.794C106.949 223.325 106.705 224.898 106.872 229.69C107.362 243.991 113.544 257.504 124.045 267.224C139.038 281.101 151.099 280.363 169.617 279.62L164.422 283.074C161.844 284.05 159.15 284.684 156.408 284.962C143.897 286.23 131.329 280.694 121.814 272.889C109.908 263.15 102.381 249.064 100.902 233.754C99.777 221.826 101.545 211.646 109.312 202.352Z" fill="#D19C2D"></path><path d="M141.175 166.085C148.598 165.431 161.937 173.214 169.128 176.196C174.837 178.563 183.898 181.942 188.823 185.001C186.624 184.913 183.949 184.106 181.542 183.878C168.277 182.624 158.255 179.867 145.996 174.625C149.443 178.837 151.638 180.776 156.417 183.274C165.956 186.929 176.443 182.428 184.658 185.684L184.619 186.348C181.577 188.886 175.591 189.855 171.708 190.983C164.981 193.069 155.228 192.752 149.779 187.834C141.194 180.086 139.981 175.562 128.298 172.122C132.871 168.973 135.83 167.359 141.175 166.085Z" fill="#D19C2D"></path><path d="M227.987 175.784C231.954 171.018 236.458 165.754 239.216 160.009C244.74 148.502 242.809 135.112 259.259 133.255C260.924 133.068 263.19 133.11 264.857 133.134C259.219 139.877 258.161 143.881 255.407 152.079C251.241 164.481 240.245 171.52 228.411 175.981L227.987 175.784Z" fill="#D19C2D"></path><path d="M135.598 133.237C159.236 132.949 156.167 144.046 163.22 161.822C164.711 165.578 169.355 171.652 171.616 175.537C160.848 171.294 151.193 163.882 146.846 152.833C143.064 143.217 145.038 140.189 135.598 133.237Z" fill="#D19C2D"></path><path d="M257.713 234.616C273.329 233.707 276.955 245.194 269.822 257.601C265.242 265.57 257.164 269.26 248.307 269.771C244.859 269.97 239.121 269.705 236.174 267.85L236.255 267.275C238.325 266.51 240.866 266.863 243.156 266.966C253.547 266.884 264.478 261.901 266.901 250.734C267.36 248.616 267.059 246.187 265.726 244.387C263.461 241.328 261.509 240.843 257.946 240.126C258.22 243.888 259.044 246.061 256.162 248.803C250.113 250.758 245.075 239.569 257.713 234.616Z" fill="#D19C2D"></path><path d="M140.37 234.588C144.591 234.378 147.417 235.037 150.894 237.933C155.113 241.447 153 250.664 146.744 249.097C143.493 248.282 146.454 243.242 145.085 240.576C130.881 240.021 133.821 261.909 154.783 266.493C159.049 267.168 163.099 266.057 167.375 267.45L167.62 268.014C162.935 270.541 151.006 269.507 146.061 267.668C131.098 262.102 121.11 242.726 140.37 234.588Z" fill="#D19C2D"></path><path d="M309.471 123.687C321.657 128.179 322.13 145.824 320.844 156.473C333.845 147.259 333.267 141.579 338.975 128.628C338.826 133.661 338.326 136.892 337.103 141.719C332.039 157.42 325.714 162.696 309.995 166.454C310.504 165.594 310.992 164.724 311.459 163.841C320.288 147.306 314.022 138.604 309.471 123.687Z" fill="#D19C2D"></path><path d="M82.7302 156.773C80.4399 141.857 81.1676 132.776 93.6699 122.612C87.6845 137.9 84.6721 146.609 91.5458 162.404C92.1506 163.792 92.776 165.17 93.4221 166.539C77.5289 161.973 71.4035 158.069 66.2031 141.71C66.6304 139.755 66.6351 139.66 67.7253 138.022C72.5604 147.301 74.4159 150.353 82.7302 156.773Z" fill="#D19C2D"></path><path d="M178.501 191.309C179.556 191.373 179.149 191.154 179.782 191.842C177.272 196.747 176.393 197.763 175.276 203.215C177.921 198.778 180.678 195.1 183.937 191.12C178.502 204.988 173.903 222.831 154.543 213.969C149.086 210.604 145.316 199.898 151.472 197.302C161.293 196.764 151.209 209.547 158.576 211.461C166.986 213.644 169.299 198.549 173.799 194.13C175.344 192.614 176.502 192.185 178.501 191.309Z" fill="#D19C2D"></path><path d="M221.523 189.83C228.04 192.256 231.791 198.949 234.423 204.951C238.731 214.776 246.717 215.24 248.846 203.804L248.303 203.77L248.855 203.765L246.796 204.397C244.754 203.762 244.225 201.272 245.284 199.661C248.069 195.422 254.011 197.836 254.68 202.438C255.203 206.043 254.19 208.551 252.26 211.52C247.21 216.039 241.816 217.111 235.297 215.403C224.781 212.649 224.133 201.336 219.183 192.915C225.642 197.099 225.531 198.651 228.854 205.559C227.365 197.407 226.764 196.15 221.523 189.83Z" fill="#D19C2D"></path><path d="M311.145 215.861C330.299 218.32 338.516 235.862 338.337 253.442C334.46 244.938 334.53 237.753 326.866 230.053L321.528 225.027C321.341 239.144 320.012 244.287 308.862 253.627C316.028 239.631 318.292 230.124 311.145 215.861Z" fill="#D19C2D"></path><path d="M306.639 179.169C316.798 178.732 316.781 183.591 324.811 188.757C326.574 189.891 329.522 190.814 331.577 191.498C328.869 192.379 325.685 193.359 323.347 194.897C316.181 199.61 316.609 203.421 307.664 204.227C305.202 204.019 300.833 202.82 299.798 200.319L300.296 199.458C302.359 198.536 304.442 199.003 306.778 199.212C309.573 197.855 314.929 193.374 317.993 191.208C310.334 186.74 312.555 184.495 301.737 182.256C303.323 181.198 305.015 180.179 306.639 179.169Z" fill="#D19C2D"></path><path d="M69.5566 231.777C76.0858 221.348 79.1085 218.629 91.0559 215.294C85.5174 230.846 87.1082 238.668 93.95 253.499C82.875 244.525 81.8317 238.537 81.9622 224.813C78.6221 227.514 75.8153 229.977 73.0067 233.257C71.8761 232.708 70.7182 232.254 69.5566 231.777Z" fill="#D19C2D"></path><path d="M90.4832 179.166C92.72 179.187 98.5007 179.276 99.235 181.752C97.8039 183.661 95.2667 182.968 93.3783 184.487C90.3564 186.918 88.0013 189.444 84.9119 191.936C88.0717 194.467 90.8917 197.475 94.3211 199.619C98.2443 199.449 99.8069 199.332 103.631 198.554C101.904 200.07 100.096 201.453 98.2885 202.871C88.7028 206.838 85.4246 199.957 78.226 195.109C76.7235 194.097 73.6115 193.145 71.8086 192.551C84.5494 188.293 80.9886 183.787 90.4832 179.166Z" fill="#D19C2D"></path><path d="M176.61 319.946C180.188 322.103 193.043 333.072 195.765 336.191L196.353 336.875C198.899 339.806 199.83 342.06 201.561 345.553C206.35 335.879 209.241 333.376 217.622 326.337C220.031 324.313 222.138 322.165 224.915 320.504L225.324 320.774L224.311 322.202C217.18 331.872 209.08 340.713 201.128 349.714C194.395 341.788 180.767 328.477 176.61 319.946Z" fill="#D19C2D"></path><path d="M308.531 260.748C326.433 263.714 308.827 287.668 297.483 283.329C302.529 281.187 309.99 278.109 312.254 272.615C311.979 270.931 312.35 271.615 311.161 270.464C308.271 269.427 306.74 272.55 303.989 270.148C302.022 265.014 304.409 263.053 308.531 260.748Z" fill="url(#paint1_linear_146_121)"></path><path d="M93.018 260.762C103.352 263.247 99.933 272.729 91.5625 270.758L91.0141 271.115C91.0366 276.223 100.245 280.981 104.424 282.518L105.599 283.093L105.641 283.622C97.1986 286.021 77.6366 270.16 93.018 260.762Z" fill="#D19C2D"></path><path d="M202.052 25.2588C204.861 26.7735 225.769 49.9592 227.515 53.9698C219.306 47.7159 199.437 37.0737 202.052 25.2588Z" fill="#D19C2D"></path><path d="M199.843 25.4331L200.634 25.9345C200.905 26.6219 201.598 28.3667 201.385 28.9554C198.014 38.2942 183.897 48.3099 176.792 53.3657L176.455 53.5845L176.11 53.2295C178.901 48.0047 195.216 30.3809 199.843 25.4331Z" fill="#D19C2D"></path><path d="M201.376 66.2588C202.962 67.7472 204.857 73.9852 206.296 75.9506C209.308 80.0645 212.195 81.5482 214.858 86.2077C207.605 84.2132 206.057 81.5989 202.118 75.5383L201.667 75.605C199.518 78.7264 193.789 87.142 189.645 85.0714C189.855 82.3238 195.695 79.0663 197.628 75.6858C199.976 71.5803 200.109 70.7464 201.376 66.2588Z" fill="#FBCB30"></path><path d="M194.543 234.787C198.656 236.712 199.863 241.362 201.357 245.458C202.147 243.21 204.118 236.424 207.198 236.913C208.213 239.486 206.458 242.823 205.434 245.429C203.675 250.117 202.711 254.177 201.762 259.061C200.027 252.161 194.511 239.755 194.543 234.787Z" fill="#D19C2D"></path><path d="M309.368 99.5382C312.563 99.1823 315.452 101.452 315.864 104.64C316.275 107.827 314.055 110.756 310.875 111.222C308.768 111.531 306.659 110.679 305.359 108.993C304.057 107.309 303.766 105.053 304.598 103.092C305.429 101.133 307.253 99.7739 309.368 99.5382Z" fill="#D19C2D"></path><path d="M90.6516 100.057C93.5945 98.8635 96.9525 100.231 98.2259 103.14C99.5001 106.049 98.2259 109.444 95.3524 110.796C93.4227 111.705 91.1511 111.494 89.4214 110.245C87.6917 108.996 86.7771 106.906 87.0325 104.788C87.2889 102.67 88.674 100.858 90.6516 100.057Z" fill="#D19C2D"></path><path d="M215.483 112.239C224.499 112.951 220.77 121.521 218.845 126.877L218.527 127.192L217.832 126.962C214.865 121.474 212.448 118.205 215.483 112.239Z" fill="#D19C2D"></path><path d="M185.266 112.228C192.522 113.955 187.525 121.594 185.462 125.822C180.438 121.466 181.016 116.589 185.266 112.228Z" fill="#D19C2D"></path><path d="M69.5562 231.777C70.7178 232.254 71.8757 232.707 73.0063 233.257C67.4331 241.859 67.2678 245.263 63.9258 254.176C64.3427 244.587 65.6001 240.455 69.5562 231.777Z" fill="#D19C2D"></path><path d="M64.1562 124.25C65.2343 128.851 66.5724 133.428 67.7265 138.023C66.6362 139.661 66.6315 139.756 66.2043 141.711C64.4614 136.669 64.2351 129.509 64.1562 124.25Z" fill="#FBCD35"></path><path d="M350.706 155.825C362.578 156.773 367.095 166.12 359.873 175.779C368.324 175.766 371.103 178.187 377.53 183.43C380.696 186.013 384.139 188.653 387.421 191.11C376.606 199.783 371.819 207.115 357.54 206.416C365.868 214.722 365.433 220.645 354.957 226.001C337.842 226.932 336.39 212.202 348.628 202.095C363.757 202.262 360.811 201.062 371.366 190.848L370.986 190.468C362.23 181.697 360.848 180.156 348.649 180.142C338.949 172.104 336.016 159.853 350.706 155.825Z" fill="#331800"></path><path d="M351.857 163.466C354.935 165.088 352.617 169.739 351.067 171.717C349.163 170.209 348.971 169.987 348.681 167.905C349.263 165.92 350.427 164.994 351.857 163.466Z" fill="#D19C2D"></path><path d="M351.68 211.371C352.986 212.011 352.385 211.611 353.295 212.951C353.7 215.556 352.867 216.886 351.361 219.005C349.893 217.424 349.029 216.634 349.057 214.42C349.643 212.806 350.345 212.455 351.68 211.371Z" fill="#D19C2D"></path><path d="M47.4469 156.179C64.6923 155.701 66.6145 170.381 53.7732 180.021C37.8659 180.157 41.2605 183.149 30.1226 191.522C43.256 201.041 36.1784 202.478 54.3075 202.14C64.4171 210.338 66.1421 220.207 53.1928 226.219C41.3713 228.74 34.398 215.295 44.2889 206.424C27.8727 207.305 28.4624 199.686 14.8623 190.808C25.5138 183.236 29.9996 175.705 43.6457 176.471C43.1367 175.819 42.6409 175.158 42.1563 174.488C36.6451 166.749 40.5581 160.788 47.4469 156.179Z" fill="#331800"></path><path d="M49.5353 163.464C53.3854 165.563 53.8042 167.382 53.2455 171.524C48.231 170.716 48.894 167.495 49.5353 163.464Z" fill="#D19C2D"></path><path d="M50.2416 210.885C51.7911 211.622 52.8916 211.964 53.6644 213.462C53.8766 215.219 53.2268 215.929 52.3385 217.489L51.2511 217.543C48.4922 216.03 49.466 213.443 50.2416 210.885Z" fill="#D19C2D"></path><path d="M46.0744 186.614C52.6411 187.34 51.5265 194.568 46.5909 195.944C39.6965 193.222 39.2195 190.071 46.0744 186.614Z" fill="#331800"></path><path d="M351.818 186.615C355.23 186.753 359.418 186.779 361.058 190.265C361.047 192.577 361.14 191.759 359.887 193.952C357.668 195.374 355.684 196.305 353.45 194.764C352.182 192.277 352.29 189.63 351.818 186.615Z" fill="#331800"></path><path d="M461.912 285.56H459.317V260.225H443.421V285.56H440.787V257.823H461.912V285.56ZM469.369 292.787C468.966 292.787 468.389 292.729 468.101 292.672V290.5C468.408 290.576 468.908 290.615 469.312 290.615C471.138 290.615 472.137 289.692 473.021 287.193L473.56 285.694L466.063 265.569H468.793L474.867 283.022H474.924L481.018 265.569H483.689L475.828 286.771C474.079 291.48 472.656 292.787 469.369 292.787ZM501.93 265.569V267.683H495.126V285.56H492.608V267.683H485.803V265.569H501.93ZM512.674 274.469H508.369V283.445H512.674C515.577 283.445 517.441 281.658 517.441 278.947C517.441 276.237 515.558 274.469 512.674 274.469ZM505.851 285.56V265.569H508.369V272.354H512.713C517.115 272.354 519.959 274.891 519.959 278.947C519.959 283.003 517.115 285.56 512.713 285.56H505.851ZM538.507 275.084L549.002 285.56H545.657L535.931 275.814H535.816V285.56H533.298V265.569H535.816V274.545H535.931L545.407 265.569H548.618L538.507 275.084ZM577.679 271.508H575.161C574.508 269.259 572.547 267.491 569.51 267.491C565.608 267.491 563.09 270.682 563.09 275.564C563.09 280.523 565.627 283.637 569.549 283.637C572.432 283.637 574.45 282.138 575.142 279.774H577.679C576.968 283.368 573.835 285.886 569.529 285.886C564.051 285.886 560.495 281.907 560.495 275.564C560.495 269.317 564.051 265.242 569.51 265.242C574.046 265.242 577.007 268.106 577.679 271.508ZM589.981 267.472C586.405 267.472 583.926 270.221 583.714 274.161H596.055C595.997 270.221 593.594 267.472 589.981 267.472ZM595.901 279.889H598.419C597.823 283.349 594.575 285.886 590.173 285.886C584.56 285.886 581.081 281.965 581.081 275.622C581.081 269.413 584.598 265.242 590.019 265.242C595.324 265.242 598.669 269.144 598.669 275.103V276.179H583.695V276.333C583.695 280.85 586.251 283.657 590.23 283.657C593.248 283.657 595.343 282.08 595.901 279.889ZM611.623 285.906C605.684 285.906 602.455 281.811 602.455 274.123C602.455 262.628 605.261 258.169 612.969 257.957C613.373 257.957 614.776 257.899 615.083 257.861C616.756 257.765 618.505 257.438 619.485 256.958V259.187C618.87 259.649 617.14 260.052 615.218 260.168C614.891 260.206 613.488 260.264 613.065 260.264C607.279 260.417 605.415 263.089 604.646 270.086H604.761C606.03 267.357 608.644 265.838 611.989 265.838C617.352 265.838 620.811 269.702 620.811 275.718C620.811 281.984 617.275 285.906 611.623 285.906ZM611.623 283.637C615.718 283.637 618.197 280.677 618.197 275.718C618.197 270.951 615.718 268.087 611.623 268.087C607.529 268.087 605.05 270.951 605.05 275.718C605.05 280.677 607.529 283.637 611.623 283.637ZM633.266 267.472C629.691 267.472 627.212 270.221 627 274.161H639.341C639.283 270.221 636.88 267.472 633.266 267.472ZM639.187 279.889H641.705C641.109 283.349 637.86 285.886 633.459 285.886C627.846 285.886 624.367 281.965 624.367 275.622C624.367 269.413 627.884 265.242 633.305 265.242C638.61 265.242 641.955 269.144 641.955 275.103V276.179H626.981V276.333C626.981 280.85 629.537 283.657 633.516 283.657C636.534 283.657 638.629 282.08 639.187 279.889ZM668.883 285.56V276.256H657.888V285.56H655.37V265.569H657.888V274.142H668.883V265.569H671.401V285.56H668.883ZM683.414 283.695C686.912 283.695 689.661 281.215 689.661 278.044V275.833L683.741 276.237C680.588 276.448 678.839 277.813 678.839 280.024C678.839 282.196 680.704 283.695 683.414 283.695ZM682.895 285.886C678.954 285.886 676.263 283.522 676.263 280.024C676.263 276.602 678.82 274.526 683.433 274.219L689.661 273.834V272.104C689.661 269.221 687.835 267.491 684.721 267.491C681.78 267.491 679.896 268.933 679.454 271.355H676.994C677.282 267.779 680.223 265.242 684.779 265.242C689.334 265.242 692.198 267.799 692.198 271.874V285.56H689.776V281.754H689.719C688.604 284.233 685.874 285.886 682.895 285.886ZM712.303 285.56H709.785V276.525H709.555C708.459 277.525 706.729 278.294 704.422 278.294C699.617 278.294 697.099 275.391 697.099 271.124V265.569H699.617V271.086C699.617 274.084 701.308 276.045 704.48 276.045C706.998 276.045 708.709 275.084 709.785 273.873V265.569H712.303V285.56ZM720.376 285.56H717.858V265.569H720.376V281.638H720.51L731.64 265.569H734.158V285.56H731.64V269.49H731.524L720.376 285.56ZM753.187 285.56V276.256H742.192V285.56H739.674V265.569H742.192V274.142H753.187V265.569H755.705V285.56H753.187ZM767.717 283.695C771.216 283.695 773.965 281.215 773.965 278.044V275.833L768.044 276.237C764.892 276.448 763.143 277.813 763.143 280.024C763.143 282.196 765.007 283.695 767.717 283.695ZM767.198 285.886C763.258 285.886 760.567 283.522 760.567 280.024C760.567 276.602 763.123 274.526 767.737 274.219L773.965 273.834V272.104C773.965 269.221 772.138 267.491 769.025 267.491C766.084 267.491 764.2 268.933 763.758 271.355H761.297C761.586 267.779 764.527 265.242 769.082 265.242C773.638 265.242 776.502 267.799 776.502 271.874V285.56H774.08V281.754H774.022C772.907 284.233 770.178 285.886 767.198 285.886ZM789.841 267.472C786.266 267.472 783.786 270.221 783.575 274.161H795.915C795.857 270.221 793.455 267.472 789.841 267.472ZM795.761 279.889H798.279C797.683 283.349 794.435 285.886 790.033 285.886C784.42 285.886 780.941 281.965 780.941 275.622C780.941 269.413 784.459 265.242 789.879 265.242C795.185 265.242 798.529 269.144 798.529 275.103V276.179H783.555V276.333C783.555 280.85 786.112 283.657 790.091 283.657C793.109 283.657 795.204 282.08 795.761 279.889ZM816.943 265.569V267.683H810.138V285.56H807.62V267.683H800.816V265.569H816.943ZM836.452 271.508H833.934C833.281 269.259 831.32 267.491 828.283 267.491C824.381 267.491 821.863 270.682 821.863 275.564C821.863 280.523 824.4 283.637 828.321 283.637C831.205 283.637 833.223 282.138 833.915 279.774H836.452C835.741 283.368 832.608 285.886 828.302 285.886C822.824 285.886 819.268 281.907 819.268 275.564C819.268 269.317 822.824 265.242 828.283 265.242C832.819 265.242 835.779 268.106 836.452 271.508ZM847.504 275.929H851.983V267.683H847.504C844.602 267.683 842.737 269.298 842.737 271.912C842.737 274.296 844.621 275.929 847.504 275.929ZM851.983 285.56V278.044H847.792L842.314 285.56H839.373L845.197 277.621C842.103 276.987 840.219 274.891 840.219 271.951C840.219 268.01 843.064 265.569 847.485 265.569H854.501V285.56H851.983ZM875.489 285.906C871.126 285.906 868.127 283.714 867.685 280.408H870.242C870.703 282.407 872.548 283.772 875.489 283.772C878.623 283.772 880.506 282.253 880.506 279.966C880.506 277.429 878.68 276.256 875.413 276.256H872.318V274.161H875.413C878.277 274.161 879.834 272.931 879.834 270.759C879.834 268.779 878.353 267.395 875.547 267.395C872.741 267.395 870.953 268.779 870.569 270.74H868.089C868.57 267.51 871.261 265.261 875.528 265.261C879.872 265.261 882.332 267.376 882.332 270.586C882.332 272.758 880.833 274.545 878.719 275.007V275.141C881.333 275.622 883.024 277.275 883.024 279.831C883.024 283.561 880.007 285.906 875.489 285.906ZM901.361 283.445V267.683H892.75C892.692 268.721 892.192 275.833 892.077 276.929C891.866 279.601 891.366 281.984 890.289 283.311V283.445H901.361ZM888.06 290.846H885.676V283.445H887.291C888.79 282.465 889.463 279.812 889.713 276.852C889.809 275.699 890.443 266.665 890.501 265.569H903.898V283.445H907.128V290.846H904.725V285.56H888.06V290.846ZM918.679 267.472C915.104 267.472 912.624 270.221 912.413 274.161H924.753C924.696 270.221 922.293 267.472 918.679 267.472ZM924.6 279.889H927.118C926.522 283.349 923.273 285.886 918.871 285.886C913.259 285.886 909.78 281.965 909.78 275.622C909.78 269.413 913.297 265.242 918.718 265.242C924.023 265.242 927.367 269.144 927.367 275.103V276.179H912.394V276.333C912.394 280.85 914.95 283.657 918.929 283.657C921.947 283.657 924.042 282.08 924.6 279.889ZM948.126 271.508H945.608C944.955 269.259 942.994 267.491 939.957 267.491C936.055 267.491 933.537 270.682 933.537 275.564C933.537 280.523 936.074 283.637 939.995 283.637C942.879 283.637 944.897 282.138 945.589 279.774H948.126C947.415 283.368 944.282 285.886 939.976 285.886C934.498 285.886 930.942 281.907 930.942 275.564C930.942 269.317 934.498 265.242 939.957 265.242C944.493 265.242 947.453 268.106 948.126 271.508ZM959.332 274.469H955.026V283.445H959.332C962.234 283.445 964.099 281.658 964.099 278.947C964.099 276.237 962.215 274.469 959.332 274.469ZM952.508 285.56V265.569H955.026V272.354H959.37C963.772 272.354 966.617 274.891 966.617 278.947C966.617 283.003 963.772 285.56 959.37 285.56H952.508Z" fill="white"></path><path d="M595.535 85.8364C591.121 85.8364 587.274 86.6416 583.994 88.2521C580.773 89.8029 578.089 91.8607 575.942 94.4254C573.794 96.9305 572.184 99.7637 571.11 102.925C570.096 106.086 569.589 109.218 569.589 112.319C569.589 115.838 570.275 119.298 571.647 122.698C573.019 126.038 574.898 129.02 577.284 131.644C579.729 134.209 582.562 136.297 585.783 137.907C589.004 139.458 592.493 140.233 596.251 140.233C597.325 140.233 598.577 140.114 600.009 139.876C601.5 139.637 602.961 139.19 604.393 138.533C605.824 137.818 607.136 136.834 608.329 135.581C609.582 134.328 610.536 132.688 611.192 130.66H612.087V140.591C611.192 140.591 610.238 140.711 609.224 140.949C608.27 141.188 607.196 141.456 606.003 141.754C604.452 142.172 602.723 142.56 600.814 142.917C598.965 143.275 596.997 143.454 594.909 143.454C589.72 143.454 585.157 142.56 581.22 140.77C577.284 138.981 574.003 136.655 571.379 133.792C568.754 130.929 566.786 127.708 565.474 124.129C564.162 120.491 563.505 116.822 563.505 113.124C563.505 109.426 564.162 105.758 565.474 102.12C566.786 98.4813 568.784 95.2306 571.468 92.3676C574.152 89.445 577.522 87.089 581.578 85.2996C585.634 83.5102 590.406 82.6156 595.893 82.6156C597.861 82.6156 599.621 82.7945 601.172 83.1524C602.782 83.5102 604.214 83.8681 605.466 84.226C606.361 84.5242 607.166 84.7628 607.882 84.9417C608.657 85.061 609.403 85.1207 610.119 85.1207V95.0517H609.224C608.866 93.2027 608.21 91.6817 607.256 90.4888C606.301 89.2362 605.168 88.2819 603.856 87.6258C602.603 86.9697 601.231 86.5224 599.74 86.2838C598.309 85.9855 596.907 85.8364 595.535 85.8364ZM619.785 141.665H620.233C620.71 141.665 621.127 141.516 621.485 141.218C621.843 140.86 622.141 140.442 622.38 139.965C622.678 139.488 622.887 138.981 623.006 138.444C623.185 137.907 623.275 137.4 623.275 136.923V89.0573C623.275 88.6398 623.185 88.1626 623.006 87.6258C622.887 87.089 622.678 86.582 622.38 86.1048C622.141 85.6277 621.843 85.24 621.485 84.9417C621.127 84.5839 620.71 84.4049 620.233 84.4049H619.785V83.5102H654.231V91.8308H653.336C653.217 90.459 652.68 89.2661 651.726 88.2521C650.771 87.1785 649.28 86.6416 647.252 86.6416H629.269V109.277H644.121C645.493 109.277 646.626 108.86 647.521 108.025C648.475 107.19 648.952 106.205 648.952 105.072H649.847V116.256H648.952C648.952 115.182 648.505 114.258 647.61 113.482C646.715 112.707 645.552 112.319 644.121 112.319H629.269V139.428H648.863C649.996 139.428 650.98 139.16 651.815 138.623C652.65 138.086 653.336 137.46 653.873 136.744C654.469 135.969 654.887 135.163 655.126 134.328C655.424 133.434 655.573 132.688 655.573 132.092H656.468V142.56H619.785V141.665ZM663.12 83.5102H675.824C682.445 83.5102 687.455 84.7926 690.855 87.3574C694.314 89.8625 696.044 93.4413 696.044 98.0936C696.044 100.599 695.448 102.835 694.255 104.804C693.062 106.772 691.481 108.442 689.513 109.814C687.604 111.126 685.427 112.14 682.982 112.856C680.596 113.572 678.21 113.93 675.824 113.93H672.424V136.744C672.424 137.221 672.484 137.758 672.603 138.355C672.723 138.891 672.902 139.398 673.14 139.876C673.438 140.353 673.737 140.77 674.035 141.128C674.393 141.486 674.81 141.665 675.287 141.665H675.735V142.56H663.12V141.665H663.567C663.985 141.665 664.372 141.486 664.73 141.128C665.088 140.77 665.386 140.353 665.625 139.876C665.863 139.398 666.042 138.891 666.162 138.355C666.281 137.758 666.341 137.221 666.341 136.744V89.0573C666.341 88.2223 666.102 87.2679 665.625 86.1943C665.148 85.1207 664.462 84.5242 663.567 84.4049H663.12V83.5102ZM672.424 86.6416V110.798H675.108C677.494 110.798 679.612 110.47 681.461 109.814C683.369 109.158 684.95 108.293 686.203 107.219C687.455 106.146 688.41 104.923 689.066 103.551C689.722 102.179 690.05 100.778 690.05 99.3462C690.05 97.6165 689.752 96.006 689.155 94.5149C688.618 92.9641 687.694 91.6221 686.382 90.4888C685.129 89.2959 683.459 88.3714 681.371 87.7153C679.284 86.9995 676.719 86.6416 673.677 86.6416H672.424ZM743.395 139.428V150.612H742.501C742.441 149.836 742.232 148.971 741.874 148.017C741.517 147.063 741.01 146.168 740.354 145.333C739.757 144.558 739.041 143.902 738.206 143.365C737.371 142.828 736.447 142.56 735.433 142.56H694.188C693.174 142.56 692.249 142.828 691.414 143.365C690.579 143.961 689.834 144.647 689.177 145.423C688.581 146.258 688.074 147.152 687.656 148.107C687.299 149.061 687.09 149.896 687.03 150.612H686.136V139.428H690.072C691.981 139.428 693.323 138.325 694.098 136.118L714.676 82.1682L735.433 135.849C735.85 136.744 736.417 137.579 737.133 138.355C737.848 139.07 738.683 139.428 739.638 139.428H743.395ZM696.067 139.428H730.512L713.245 94.9622L696.067 139.428ZM750.579 141.665H751.026C751.563 141.665 752.01 141.486 752.368 141.128C752.726 140.77 752.994 140.353 753.173 139.876C753.412 139.398 753.561 138.891 753.621 138.355C753.74 137.758 753.8 137.221 753.8 136.744V89.3257C753.8 88.9082 753.74 88.4012 753.621 87.8047C753.561 87.2083 753.412 86.6715 753.173 86.1943C752.994 85.7171 752.726 85.2996 752.368 84.9417C752.01 84.5839 751.563 84.4049 751.026 84.4049H750.579V83.5102H763.194V84.4049H762.299C761.822 84.4646 761.405 84.6733 761.047 85.0312C760.748 85.3891 760.51 85.8066 760.331 86.2838C760.152 86.7609 760.003 87.2977 759.884 87.8942C759.824 88.431 759.794 88.9082 759.794 89.3257V139.428H786.724V89.3257C786.724 88.9082 786.665 88.431 786.545 87.8942C786.486 87.2977 786.336 86.7609 786.098 86.2838C785.919 85.8066 785.651 85.3891 785.293 85.0312C784.935 84.6733 784.517 84.4646 784.04 84.4049H783.503V83.5102H795.939V84.4049H795.134C794.657 84.4646 794.269 84.6733 793.971 85.0312C793.673 85.3891 793.434 85.8066 793.255 86.2838C793.076 86.7609 792.927 87.2977 792.808 87.8942C792.748 88.431 792.719 88.9082 792.719 89.3257V134.597C792.719 135.79 793.017 136.893 793.613 137.907C794.269 138.921 795.313 139.428 796.745 139.428H801.218V150.612H800.323C800.264 149.836 800.055 148.971 799.697 148.017C799.399 147.122 798.922 146.258 798.266 145.423C797.669 144.647 796.894 143.961 795.939 143.365C795.045 142.828 793.971 142.56 792.719 142.56H750.579V141.665ZM806.586 141.665H807.034C807.511 141.665 807.928 141.516 808.286 141.218C808.644 140.86 808.942 140.442 809.181 139.965C809.479 139.488 809.688 138.981 809.807 138.444C809.986 137.907 810.075 137.4 810.075 136.923V89.0573C810.075 88.6398 809.986 88.1626 809.807 87.6258C809.688 87.089 809.479 86.582 809.181 86.1048C808.942 85.6277 808.644 85.24 808.286 84.9417C807.928 84.5839 807.511 84.4049 807.034 84.4049H806.586V83.5102H841.032V91.8308H840.137C840.018 90.459 839.481 89.2661 838.527 88.2521C837.572 87.1785 836.081 86.6416 834.053 86.6416H816.07V109.277H830.922C832.294 109.277 833.427 108.86 834.322 108.025C835.276 107.19 835.753 106.205 835.753 105.072H836.648V116.256H835.753C835.753 115.182 835.306 114.258 834.411 113.482C833.516 112.707 832.353 112.319 830.922 112.319H816.07V139.428H835.664C836.797 139.428 837.781 139.16 838.616 138.623C839.451 138.086 840.137 137.46 840.674 136.744C841.27 135.969 841.688 135.163 841.926 134.328C842.225 133.434 842.374 132.688 842.374 132.092H843.268V142.56H806.586V141.665ZM464.438 226.665H464.886C465.363 226.665 465.78 226.516 466.138 226.218C466.496 225.86 466.794 225.442 467.033 224.965C467.272 224.428 467.451 223.891 467.57 223.355C467.689 222.758 467.749 222.221 467.749 221.744V174.057C467.749 173.64 467.659 173.163 467.48 172.626C467.361 172.089 467.182 171.582 466.944 171.105C466.705 170.628 466.407 170.24 466.049 169.942C465.691 169.584 465.303 169.405 464.886 169.405H464.438V168.51H510.246V169.405H509.531C509.113 169.405 508.755 169.584 508.457 169.942C508.159 170.24 507.89 170.657 507.652 171.194C507.473 171.671 507.324 172.178 507.204 172.715C507.085 173.252 507.026 173.699 507.026 174.057V221.744C507.026 222.221 507.055 222.728 507.115 223.265C507.234 223.802 507.383 224.339 507.562 224.876C507.801 225.353 508.069 225.77 508.368 226.128C508.725 226.486 509.113 226.665 509.531 226.665H510.246V227.56H497.721V226.665H498.526C498.944 226.665 499.301 226.486 499.6 226.128C499.957 225.77 500.226 225.353 500.405 224.876C500.643 224.398 500.793 223.891 500.852 223.355C500.971 222.758 501.031 222.221 501.031 221.744V171.642H473.743V221.744C473.743 222.221 473.803 222.758 473.922 223.355C474.041 223.891 474.191 224.398 474.369 224.876C474.608 225.353 474.906 225.77 475.264 226.128C475.622 226.486 476.04 226.665 476.517 226.665H476.964V227.56H464.438V226.665ZM554.392 226.665H554.84C555.317 226.665 555.734 226.516 556.092 226.218C556.45 225.86 556.748 225.442 556.987 224.965C557.285 224.428 557.494 223.891 557.613 223.355C557.732 222.758 557.792 222.221 557.792 221.744V180.767L528.088 220.939V221.744C528.088 222.221 528.148 222.758 528.267 223.355C528.446 223.891 528.655 224.398 528.894 224.876C529.132 225.353 529.43 225.77 529.788 226.128C530.146 226.486 530.564 226.665 531.041 226.665H531.488V227.56H518.784V226.665H519.231C519.708 226.665 520.126 226.516 520.484 226.218C520.841 225.86 521.14 225.442 521.378 224.965C521.676 224.428 521.885 223.891 522.005 223.355C522.124 222.758 522.183 222.221 522.183 221.744V174.057C522.183 173.64 522.124 173.163 522.005 172.626C521.885 172.089 521.676 171.582 521.378 171.105C521.14 170.628 520.841 170.24 520.484 169.942C520.126 169.584 519.708 169.405 519.231 169.405H518.784V168.51H531.488V169.405H530.772C530.355 169.465 529.967 169.673 529.609 170.031C529.311 170.389 529.043 170.807 528.804 171.284C528.566 171.701 528.387 172.178 528.267 172.715C528.148 173.192 528.088 173.64 528.088 174.057V215.392L557.792 175.22V174.057C557.792 173.64 557.732 173.163 557.613 172.626C557.494 172.089 557.285 171.582 556.987 171.105C556.748 170.628 556.45 170.24 556.092 169.942C555.734 169.584 555.317 169.405 554.84 169.405H554.392V168.51H567.097V169.405H566.649C566.172 169.405 565.755 169.584 565.397 169.942C565.039 170.24 564.741 170.628 564.502 171.105C564.264 171.582 564.055 172.089 563.876 172.626C563.757 173.163 563.697 173.64 563.697 174.057V221.744C563.697 222.221 563.757 222.728 563.876 223.265C564.055 223.802 564.264 224.339 564.502 224.876C564.741 225.353 565.039 225.77 565.397 226.128C565.755 226.486 566.172 226.665 566.649 226.665H567.097V227.56H554.392V226.665ZM583.18 221.297C582.643 222.848 581.808 224.279 580.675 225.591C579.542 226.903 577.872 227.56 575.665 227.56H572.891V226.665C573.249 226.665 573.726 226.575 574.323 226.396C574.919 226.158 575.545 225.8 576.202 225.323C576.858 224.846 577.514 224.249 578.17 223.533C578.826 222.758 579.393 221.804 579.87 220.67L596.779 174.326C597.078 173.431 597.227 172.745 597.227 172.268C597.227 171.373 596.958 170.687 596.422 170.21C595.944 169.673 595.437 169.405 594.901 169.405V168.51H602.237L622.278 223.265C622.576 224.1 623.143 224.876 623.978 225.591C624.813 226.247 625.737 226.605 626.751 226.665V227.56H613.957V226.665C614.435 226.665 614.912 226.486 615.389 226.128C615.926 225.711 616.194 225.174 616.194 224.518C616.194 224.339 616.134 224.07 616.015 223.712L599.195 177.368L583.18 221.297ZM669.024 226.665H669.471C669.948 226.665 670.366 226.516 670.724 226.218C671.082 225.86 671.38 225.442 671.619 224.965C671.917 224.428 672.126 223.891 672.245 223.355C672.364 222.758 672.424 222.221 672.424 221.744V180.767L642.72 220.939V221.744C642.72 222.221 642.78 222.758 642.899 223.355C643.078 223.891 643.287 224.398 643.525 224.876C643.764 225.353 644.062 225.77 644.42 226.128C644.778 226.486 645.195 226.665 645.673 226.665H646.12V227.56H633.415V226.665H633.863C634.34 226.665 634.757 226.516 635.115 226.218C635.473 225.86 635.771 225.442 636.01 224.965C636.308 224.428 636.517 223.891 636.636 223.355C636.756 222.758 636.815 222.221 636.815 221.744V174.057C636.815 173.64 636.756 173.163 636.636 172.626C636.517 172.089 636.308 171.582 636.01 171.105C635.771 170.628 635.473 170.24 635.115 169.942C634.757 169.584 634.34 169.405 633.863 169.405H633.415V168.51H646.12V169.405H645.404C644.987 169.465 644.599 169.673 644.241 170.031C643.943 170.389 643.674 170.807 643.436 171.284C643.197 171.701 643.018 172.178 642.899 172.715C642.78 173.192 642.72 173.64 642.72 174.057V215.392L672.424 175.22V174.057C672.424 173.64 672.364 173.163 672.245 172.626C672.126 172.089 671.917 171.582 671.619 171.105C671.38 170.628 671.082 170.24 670.724 169.942C670.366 169.584 669.948 169.405 669.471 169.405H669.024V168.51H681.728V169.405H681.281C680.804 169.405 680.386 169.584 680.029 169.942C679.671 170.24 679.372 170.628 679.134 171.105C678.895 171.582 678.687 172.089 678.508 172.626C678.388 173.163 678.329 173.64 678.329 174.057V221.744C678.329 222.221 678.388 222.728 678.508 223.265C678.687 223.802 678.895 224.339 679.134 224.876C679.372 225.353 679.671 225.77 680.029 226.128C680.386 226.486 680.804 226.665 681.281 226.665H681.728V227.56H669.024V226.665ZM702.643 226.665H703.091V227.56H690.207V226.665H690.654C691.132 226.665 691.549 226.516 691.907 226.218C692.265 225.86 692.563 225.442 692.802 224.965C693.1 224.488 693.309 223.981 693.428 223.444C693.547 222.907 693.607 222.4 693.607 221.923V174.057C693.607 173.64 693.547 173.163 693.428 172.626C693.309 172.089 693.1 171.582 692.802 171.105C692.563 170.628 692.265 170.24 691.907 169.942C691.549 169.584 691.132 169.405 690.654 169.405H690.207V168.51H724.652V177.994H723.758C723.758 175.847 723.281 174.266 722.326 173.252C721.432 172.178 720 171.642 718.032 171.642H699.691V221.923C699.691 222.4 699.75 222.907 699.87 223.444C699.989 223.981 700.168 224.488 700.406 224.965C700.705 225.442 701.033 225.86 701.391 226.218C701.748 226.516 702.166 226.665 702.643 226.665ZM729.959 168.51H742.664C749.284 168.51 754.295 169.793 757.694 172.357C761.154 174.863 762.884 178.441 762.884 183.094C762.884 185.599 762.287 187.835 761.094 189.804C759.901 191.772 758.321 193.442 756.352 194.814C754.444 196.126 752.267 197.14 749.821 197.856C747.435 198.572 745.049 198.93 742.664 198.93H739.264V221.744C739.264 222.221 739.323 222.758 739.443 223.355C739.562 223.891 739.741 224.398 739.98 224.876C740.278 225.353 740.576 225.77 740.874 226.128C741.232 226.486 741.65 226.665 742.127 226.665H742.574V227.56H729.959V226.665H730.406C730.824 226.665 731.212 226.486 731.57 226.128C731.927 225.77 732.226 225.353 732.464 224.876C732.703 224.398 732.882 223.891 733.001 223.355C733.12 222.758 733.18 222.221 733.18 221.744V174.057C733.18 173.222 732.941 172.268 732.464 171.194C731.987 170.121 731.301 169.524 730.406 169.405H729.959V168.51ZM739.264 171.642V195.798H741.948C744.334 195.798 746.451 195.47 748.3 194.814C750.209 194.158 751.789 193.293 753.042 192.219C754.295 191.146 755.249 189.923 755.905 188.551C756.561 187.179 756.889 185.778 756.889 184.346C756.889 182.616 756.591 181.006 755.994 179.515C755.458 177.964 754.533 176.622 753.221 175.489C751.968 174.296 750.298 173.371 748.211 172.715C746.123 172 743.558 171.642 740.516 171.642H739.264ZM806.11 226.665H806.558C807.035 226.665 807.452 226.516 807.81 226.218C808.168 225.86 808.466 225.442 808.705 224.965C809.003 224.428 809.212 223.891 809.331 223.355C809.45 222.758 809.51 222.221 809.51 221.744V180.767L779.806 220.939V221.744C779.806 222.221 779.866 222.758 779.985 223.355C780.164 223.891 780.373 224.398 780.612 224.876C780.85 225.353 781.148 225.77 781.506 226.128C781.864 226.486 782.282 226.665 782.759 226.665H783.206V227.56H770.502V226.665H770.949C771.426 226.665 771.844 226.516 772.202 226.218C772.559 225.86 772.858 225.442 773.096 224.965C773.394 224.428 773.603 223.891 773.723 223.355C773.842 222.758 773.901 222.221 773.901 221.744V174.057C773.901 173.64 773.842 173.163 773.723 172.626C773.603 172.089 773.394 171.582 773.096 171.105C772.858 170.628 772.559 170.24 772.202 169.942C771.844 169.584 771.426 169.405 770.949 169.405H770.502V168.51H783.206V169.405H782.49C782.073 169.465 781.685 169.673 781.327 170.031C781.029 170.389 780.761 170.807 780.522 171.284C780.284 171.701 780.105 172.178 779.985 172.715C779.866 173.192 779.806 173.64 779.806 174.057V215.392L809.51 175.22V174.057C809.51 173.64 809.45 173.163 809.331 172.626C809.212 172.089 809.003 171.582 808.705 171.105C808.466 170.628 808.168 170.24 807.81 169.942C807.452 169.584 807.035 169.405 806.558 169.405H806.11V168.51H818.815V169.405H818.367C817.89 169.405 817.473 169.584 817.115 169.942C816.757 170.24 816.459 170.628 816.22 171.105C815.982 171.582 815.773 172.089 815.594 172.626C815.475 173.163 815.415 173.64 815.415 174.057V221.744C815.415 222.221 815.475 222.728 815.594 223.265C815.773 223.802 815.982 224.339 816.22 224.876C816.459 225.353 816.757 225.77 817.115 226.128C817.473 226.486 817.89 226.665 818.367 226.665H818.815V227.56H806.11V226.665ZM875.427 226.665H875.875C876.292 226.665 876.68 226.486 877.038 226.128C877.396 225.77 877.694 225.353 877.933 224.876C878.231 224.398 878.44 223.891 878.559 223.355C878.678 222.758 878.738 222.221 878.738 221.744V174.684L855.655 228.544L833.735 177.457V221.744C833.735 222.221 833.795 222.758 833.914 223.355C834.033 223.891 834.212 224.398 834.451 224.876C834.749 225.353 835.077 225.77 835.435 226.128C835.793 226.486 836.21 226.665 836.688 226.665H837.135V227.56H827.383V226.665H827.83C828.248 226.665 828.635 226.486 828.993 226.128C829.351 225.77 829.649 225.353 829.888 224.876C830.126 224.398 830.305 223.891 830.425 223.355C830.544 222.758 830.604 222.221 830.604 221.744V174.057C830.604 173.64 830.544 173.163 830.425 172.626C830.305 172.089 830.126 171.582 829.888 171.105C829.649 170.628 829.351 170.24 828.993 169.942C828.635 169.584 828.248 169.405 827.83 169.405H827.383V168.51H836.509L857.265 217.45L878.022 168.51H888.132V169.405H887.685C887.207 169.405 886.79 169.584 886.432 169.942C886.074 170.24 885.746 170.628 885.448 171.105C885.209 171.582 885.03 172.089 884.911 172.626C884.792 173.163 884.732 173.64 884.732 174.057V221.744C884.732 222.221 884.792 222.758 884.911 223.355C885.03 223.891 885.209 224.398 885.448 224.876C885.746 225.353 886.074 225.77 886.432 226.128C886.79 226.486 887.207 226.665 887.685 226.665H888.132V227.56H875.427V226.665ZM931.018 226.665H931.466C932.897 226.665 933.613 226.009 933.613 224.697C933.613 224.219 933.523 223.712 933.344 223.176L925.292 201.435H909.635L901.851 222.818C901.673 223.295 901.583 223.742 901.583 224.16C901.583 224.935 901.792 225.561 902.209 226.039C902.627 226.456 903.074 226.665 903.551 226.665H903.999V227.56H894.068V226.665H894.515C895.29 226.665 896.036 226.218 896.752 225.323C897.527 224.369 898.153 223.265 898.631 222.013L919.119 167.437L939.16 221.476C939.577 222.669 940.144 223.832 940.86 224.965C941.635 226.098 942.619 226.665 943.812 226.665H944.26V227.56H931.018V226.665ZM910.53 198.393H924.308L917.419 179.694L910.53 198.393Z" fill="white"></path><defs><linearGradient id="paint0_linear_146_121" x1="222.089" y1="364.436" x2="178.423" y2="4.38931" gradientUnits="userSpaceOnUse"><stop stop-color="#BE8925"></stop><stop offset="1" stop-color="#E7B239"></stop></linearGradient><linearGradient id="paint1_linear_146_121" x1="308.201" y1="281.602" x2="304.775" y2="262.335" gradientUnits="userSpaceOnUse"><stop stop-color="#D6A213"></stop><stop offset="1" stop-color="#BF8B2B"></stop></linearGradient></defs></svg> 